<svg version="1.2" xmlns="http://www.w3.org/2000/svg" viewBox="0 0 24 24" width="24" height="24">
	<title>fb-svg</title>
	<defs>
		<clipPath clipPathUnits="userSpaceOnUse" id="cp1">
			<path d="m22 12c0-5.52-4.48-10-10-10-5.52 0-10 4.48-10 10 0 4.99 3.66 9.13 8.44 9.88v-6.99h-2.54v-2.89h2.54v-2.2c0-2.51 1.49-3.89 3.77-3.89 1.1 0 2.24 0.19 2.24 0.19v2.46h-1.26c-1.24 0-1.63 0.77-1.63 1.56v1.88h2.78l-0.45 2.89h-2.33v6.99c4.78-0.75 8.44-4.89 8.44-9.88z"/>
		</clipPath>
	</defs>
	<style>
		.s0 { fill: none;stroke: #000000;stroke-linejoin: round } 
		.s1 { fill: #ffffff;stroke: #000000;stroke-linejoin: round } 
	</style>
	<g clip-path="url(#cp1)">
		<path id="Layer" class="s0" d="m22 12c0-5.5-4.5-10-10-10-5.5 0-10 4.5-10 10 0 5 3.7 9.1 8.4 9.9v-7h-2.5v-2.9h2.5v-2.2c0-2.5 1.5-3.9 3.8-3.9 1.1 0 2.3 0.2 2.3 0.2v2.5h-1.3c-1.3 0-1.6 0.7-1.6 1.5v1.9h2.7l-0.4 2.9h-2.3v7c4.7-0.8 8.4-4.9 8.4-9.9z"/>
		<path id="Shape 1" class="s1" d="m-15-9h51v41h-51z"/>
	</g>
</svg>